<?xml version="1.0" encoding="UTF-8" standalone="no"?>
<svg width="800px" height="600px" viewBox="0 0 800 600" version="1.1" xmlns="http://www.w3.org/2000/svg" xmlns:xlink="http://www.w3.org/1999/xlink">
    <defs>
        <linearGradient x1="0%" y1="0%" x2="100%" y2="100%" id="linearGradient-1">
            <stop stop-color="#0C1222" offset="0%"></stop>
            <stop stop-color="#0F172A" offset="100%"></stop>
        </linearGradient>
    </defs>
    <g id="Page-1" stroke="none" stroke-width="1" fill="none" fill-rule="evenodd">
        <rect id="Background" fill="url(#linearGradient-1)" x="0" y="0" width="800" height="600"></rect>
        <g id="Cinema-Elements" transform="translate(100, 100)" stroke="#3B82F6" stroke-width="5">
            <circle id="Circle1" cx="300" cy="200" r="100"></circle>
            <rect id="Rectangle" x="150" y="50" width="300" height="300" rx="20"></rect>
            <path d="M0,150 L600,150" id="Line" stroke-linecap="round" stroke-dasharray="10,20"></path>
            <path d="M300,0 L300,400" id="Line2" stroke-linecap="round" stroke-dasharray="10,20"></path>
        </g>
        <g id="Stars" fill="#3B82F6">
            <circle cx="50" cy="50" r="3"></circle>
            <circle cx="150" cy="80" r="2"></circle>
            <circle cx="250" cy="30" r="4"></circle>
            <circle cx="350" cy="70" r="2"></circle>
            <circle cx="450" cy="40" r="3"></circle>
            <circle cx="550" cy="90" r="2"></circle>
            <circle cx="650" cy="60" r="4"></circle>
            <circle cx="750" cy="50" r="3"></circle>
            <circle cx="70" cy="150" r="2"></circle>
            <circle cx="170" cy="180" r="3"></circle>
            <circle cx="720" cy="150" r="3"></circle>
            <circle cx="640" cy="180" r="2"></circle>
            <circle cx="80" cy="250" r="4"></circle>
            <circle cx="180" cy="280" r="2"></circle>
            <circle cx="740" cy="250" r="2"></circle>
            <circle cx="670" cy="280" r="3"></circle>
            <circle cx="60" cy="350" r="3"></circle>
            <circle cx="160" cy="380" r="2"></circle>
            <circle cx="760" cy="350" r="4"></circle>
            <circle cx="600" cy="380" r="2"></circle>
            <circle cx="100" cy="450" r="2"></circle>
            <circle cx="200" cy="480" r="3"></circle>
            <circle cx="700" cy="450" r="3"></circle>
            <circle cx="650" cy="480" r="2"></circle>
            <circle cx="50" cy="550" r="4"></circle>
            <circle cx="150" cy="520" r="2"></circle>
            <circle cx="750" cy="550" r="2"></circle>
            <circle cx="680" cy="520" r="3"></circle>
        </g>
    </g>
</svg>